<svg xmlns="http://www.w3.org/2000/svg" viewBox="0 0 1053.36 2124.17"><defs><style>.cls-1{fill:#fff;}.cls-2{fill:#e6e6e7;}.cls-3{fill:#343444;}.cls-4{fill:#f0f1f1;}.cls-5{fill:#d34a4a;}.cls-6{fill:#3d3d77;}.cls-7{fill:#262260;}.cls-8{fill:#ea5e5e;}.cls-9{fill:#d0d2d3;}.cls-10{fill:#ffba7f;}.cls-11{fill:#bbbdbf;}.cls-12{fill:#57585a;}.cls-13{fill:#929597;}.cls-14{fill:#3b2314;}.cls-15{fill:#221f1f;}.cls-16{fill:#d15c58;}.cls-17{fill:#f88976;}.cls-18{fill:#f69d5e;}.cls-19,.cls-20,.cls-21,.cls-22,.cls-23{fill:none;stroke:#221f1f;stroke-miterlimit:10;}.cls-19{stroke-width:9.97px;}.cls-20,.cls-22{stroke-linecap:round;}.cls-20{stroke-width:21.54px;}.cls-21{stroke-width:19.48px;}.cls-22{stroke-width:21.63px;}.cls-23{stroke-linecap:square;stroke-width:18px;}</style></defs><title>doctor-v</title><g id="Layer_2" data-name="Layer 2"><g id="Capa_1" data-name="Capa 1"><path class="cls-1" d="M220.54,1612.25l-18.41.82C211.48,1618.43,220.54,1612.25,220.54,1612.25Z"/><path class="cls-1" d="M128.82,977.55C-14,1008.23,6.38,1278.68,0,1527.75L22.48,1621l179.65-8c-12.67-7.26-25.86-35.68-17.83-129.28,13.94-162.72,9.87-227.72,9.87-227.72L357,885.58S183.19,965.88,128.82,977.55Z"/><polygon class="cls-2" points="171.6 1509.66 191.32 1504.99 187.38 1253.02 171.6 1509.66"/><polygon class="cls-3" points="254.02 2018.98 253.34 2124.17 518.89 2124.17 522.5 2011.09 254.02 2018.98"/><polygon class="cls-3" points="554.08 2018.98 557.43 2124.17 823.18 2124.17 822.56 2026.88 554.08 2018.98"/><path class="cls-4" d="M878.7,1612.61l-6.4-.36S875.86,1618.78,878.7,1612.61Z"/><path class="cls-4" d="M924.54,977.55c-54.36-11.67-228.21-92-228.21-92L859.2,1256.07s3.83,65,17.78,227.72c7.88,91.71,5.39,120.85,1.72,128.82l152.19,8.43,22.47-93.29C1047,1278.68,1067.33,1008.23,924.54,977.55Z"/><polygon class="cls-5" points="417.13 932.99 179.39 1022.36 179.12 1881.69 873.34 1881.94 873.65 1022.6 649.27 902.12 417.13 932.99"/><polygon class="cls-6" points="502.59 1037.58 466.21 1548.67 532.31 1664.39 600.63 1553.78 556.52 1037.6 502.59 1037.58"/><path class="cls-7" d="M528.8,920.76s-53.9,1.1-67,25.27c-29,53.41,40.81,99.18,40.81,99.18h53.9s57.76-41.48,41.43-81.62C584.74,931.24,528.8,920.76,528.8,920.76Z"/><polygon class="cls-8" points="347.15 901.1 430.51 1016.25 531.8 916.49 362.43 806.04 347.15 901.1"/><polygon class="cls-8" points="525.74 916.46 627.01 1016.32 702.82 908.85 695.2 806.16 525.74 916.46"/><path class="cls-1" d="M362.39,893.49l-172.2,77.74-33.75,207.93s-12.58,593.06-16.81,945H538l11.25-539.86Z"/><polygon class="cls-4" points="311.3 893.46 266.4 1078.25 338.99 1149.46 332.37 1205.39 549.23 1584.31 352.78 854.01 311.3 893.46"/><polygon class="cls-9" points="215.59 1869.15 369.94 1869.19 369.94 1848.86 215.59 1848.79 215.59 1869.15"/><path class="cls-4" d="M865.78,971.43,693.59,893.61l-187.27,690.7.29,539.86h409.2c-4.09-352-16.44-944.77-16.44-944.77Z"/><polygon class="cls-1" points="744.71 893.63 703.27 854.14 506.32 1584.31 746.29 1205.51 716.84 1149.58 789.46 1078.43 744.71 893.63"/><path class="cls-9" d="M550.66,1658.07a15.25,15.25,0,1,0,15.22,15.27A15.27,15.27,0,0,0,550.66,1658.07Z"/><path class="cls-9" d="M550.6,1818.28a15.26,15.26,0,1,0,15.26,15.24A15.26,15.26,0,0,0,550.6,1818.28Z"/><path class="cls-9" d="M551.6,1988.48a15.25,15.25,0,1,0,15.21,15.27A15.32,15.32,0,0,0,551.6,1988.48Z"/><polygon class="cls-9" points="680.92 1869.3 835.25 1869.38 835.27 1848.98 680.92 1848.97 680.92 1869.3"/><polygon class="cls-9" points="348.78 1596.52 905.45 1703.11 905.45 1655.73 356.67 1545.18 348.78 1596.52"/><polygon class="cls-9" points="588.31 1435.84 592.9 1492.17 870.9 1528.35 869.56 1478.46 588.31 1435.84"/><polygon class="cls-9" points="854.14 1504.99 873.88 1509.66 858.1 1253.02 854.14 1504.99"/><path class="cls-10" d="M257.29,1384.25c-7.22,16.11,19.16,32.86,19.16,32.86s-63.32-17.19-86.08-10.33-35.46,35-38.59,54.93,16.85,56.65,51.59,69,140.83,27.78,150.88,15.48,27.1-109.82,27.1-109.82l-84.73-57.22S264.55,1368.12,257.29,1384.25Z"/><path class="cls-4" d="M906.27,1513,376.43,1408.27l-29.26,167.39S837,1671.23,950.72,1690s99.17-189.12,99.17-189.12Z"/><polygon class="cls-9" points="147.89 1655.73 147.89 1703.11 704.59 1596.52 696.68 1545.18 147.89 1655.73"/><path class="cls-10" d="M740.38,1412.46c-61.88-4.15-98,16.35-98,16.35s17.06,97.56,27.12,109.83,56.58-37.73,91.36-50.14,68.48-7.44,89.89-10C870.78,1476.09,797.07,1416.24,740.38,1412.46Z"/><path class="cls-1" d="M147.1,1497.21,3.5,1500.88S-11.1,1708.77,102.66,1690s603.53-114.34,603.53-114.34l-29.25-183.18Z"/><path class="cls-11" d="M266.64,1513.54c-19.1,2.88-43,2.13-51.29-5.65-5.44-3.93-11.46-20.4-14.16-43-6.08-45-4.09-113.34-4.71-167.14l-15.77.18c.64,53.41-1.48,121.81,4.8,169,3.48,23.76,7.79,42.36,19.63,53,17,13.54,43,11.65,63.59,9.22a243.68,243.68,0,0,0,30-6l-4.21-15.19A230.5,230.5,0,0,1,266.64,1513.54Z"/><path class="cls-12" d="M284.38,1502.12c-10.67,2.29-18.05,9.86-16.57,17s11.36,11,22.05,8.79,18.06-9.89,16.56-17S295.05,1499.85,284.38,1502.12Z"/><path class="cls-11" d="M423.09,1265.54l-15.28,4c13.58,52.06,33.4,117.44,39.44,162.47,3.25,22.45,1.82,39.94-2.36,45.19-5.93,9.64-28.82,16.71-48,18.93a247.33,247.33,0,0,1-28.37,2.05l0,15.77a249.78,249.78,0,0,0,30.5-2.17c20.5-3.08,46.1-8.08,59-25.63,8.6-13.33,7.91-32.39,5-56.23C456.53,1382.66,436.52,1317.24,423.09,1265.54Z"/><path class="cls-12" d="M376.8,1489.75c-10.9.62-19.4,7-19,14.28s9.58,12.62,20.47,12,19.36-7,19-14.27S387.67,1489.12,376.8,1489.75Z"/><path class="cls-12" d="M281.75,1130.31c-70.62,10.11-113.72,90.25-102.26,176.82l20.43-2.75h0C194.65,1265,202,1228,217.7,1200.28s39.25-45.85,66.78-49.54,54.93,7.62,77.44,30.24,39.29,56.42,44.54,95.73l20.45-2.72C415.18,1187.48,352.54,1121.48,281.75,1130.31Z"/><path class="cls-12" d="M302,861.05c-19,24.76-35.53,56.51-41.87,90.09a219.48,219.48,0,0,0-3.47,40.21c.05,53.32,14.64,154.54,14.79,155.06l19.76-5.78h0c0-.05-.51-11.16-4.25-29s-10.54-95.49-10.52-120.25a199.08,199.08,0,0,1,3.11-36.59c5.53-29.59,20.66-59,38.11-81.66,17.24-22.7,37.63-38.28,49.37-40.89l-4.79-19.15C342.26,818.35,321.24,836.34,302,861.05Z"/><path class="cls-12" d="M755.48,861.05c-19.28-24.72-40.31-42.7-60.19-48l-4.78,19.16c11.71,2.63,32.11,18.21,49.33,40.88,17.47,22.62,32.61,52.07,38.14,81.66,2.14,11.61,3.08,26.68,3.08,43.13,0,66.23-15.11,153.89-15.1,154.05l19.47,3.4v0c0-.26,15.34-88.52,15.39-157.42,0-17.22-.94-33.23-3.44-46.75C791,917.55,774.56,885.81,755.48,861.05Z"/><path class="cls-13" d="M754.85,1146.41a71.07,71.07,0,1,0,71.06,71.08A71.07,71.07,0,0,0,754.85,1146.41Z"/><path class="cls-9" d="M754.85,1183.27a34.23,34.23,0,1,0,34.21,34.22A34.24,34.24,0,0,0,754.85,1183.27Z"/><path class="cls-10" d="M175.6,462.53c-34,9.9-26.17,61-26.2,80s28.45,86.36,47.53,93.74c48.33,18.75,48.36-51.71,48.36-51.71v-82S209.6,452.67,175.6,462.53Z"/><path class="cls-10" d="M868.49,463.37c-34-9.88-69.72,39.93-69.72,39.93v82s-.08,72.64,48.29,51.76c18.75-8.13,47.57-74.72,47.6-93.73S902.52,473.25,868.49,463.37Z"/><path class="cls-10" d="M608.07,103.29l-169.07,0C316.28,103.19,216.8,232.92,216.71,393l-.05,220.52c-.07,160.08,166.78,272.3,222.09,289.93C497,922,554,919.36,607.83,903.49,666,886.34,830.05,773.8,830.14,613.75l.05-220.55C830.23,233.13,730.78,103.32,608.07,103.29Z"/><path class="cls-14" d="M216.66,518.38C239.4,500.07,296,191.76,298.9,175.48L202,206.39S196.88,534.34,216.66,518.38Z"/><path class="cls-14" d="M757.89,194.91s57.39,315.18,75.22,330.18,13.43-281.85,13.43-281.85Z"/><path class="cls-15" d="M386.64,496.94A36.41,36.41,0,1,0,423,533.38,36.42,36.42,0,0,0,386.64,496.94Z"/><path class="cls-15" d="M664,497a36.42,36.42,0,1,0,36.39,36.43A36.44,36.44,0,0,0,664,497Z"/><path class="cls-14" d="M756.45,436.76c-42.38-28.37-123.34-18.5-135.69-17.25C610,420.55,587.88,430.19,589,441s39,18.77,49.8,17.69c41.15-4.07,79.23-8,137.22,5.39C786.6,466.52,765.47,442.81,756.45,436.76Z"/><path class="cls-14" d="M435.25,421.15C422.92,420,342,410,299.55,438.37c-9,6-30.15,30-19.56,27.29,59.07-15,96.07-9.39,137.19-5.32,10.8,1.1,48.8-6.81,49.89-17.62S446.07,422.26,435.25,421.15Z"/><path class="cls-16" d="M413.36,728c17.73,36.76,43.82,96.72,122.9,96.61,82.9-.14,134.23-126.67,134.23-126.67C565.93,747.45,506.31,753.37,413.36,728Z"/><path class="cls-1" d="M434.2,733.24c6.62,21.74,37.17,30.68,98.93,26.3,81.77-5.87,100-26,110.11-49.27C577.3,740.49,487.32,744.77,434.2,733.24Z"/><path class="cls-17" d="M535.07,787.39s-15.46-12.27-33.75-12.27-52.71,11.46-52.71,11.46c15.81,21.8,44.75,37.55,85.29,37.74,51.28.27,82.48-41.17,82.48-41.17s-32-7.81-54.26-8C547.92,775,535.07,787.39,535.07,787.39Z"/><path class="cls-18" d="M572,652.12c-31.67,26.42-76.57,18.4-89.75,0,0,0,13.19,47.45,44.87,46S603.66,625.72,572,652.12Z"/><path class="cls-14" d="M610,15.93C469.53-16.53,391.6,37.79,391.6,37.79S371,21.25,386.9,0c-38.95,5.33-49.59,45.45-62,76.16-38.94-12.41-70.22,4.12-70.22,4.12s31.28,24.18-2.35,51.93C157.89,210.15,202.75,301,202.75,301s34.78,86.54,51.34,69.06c62-65.53,110.68-100.06,121.32-149.64,0,0,65.87,85.34,154.63,105.36,73.17,16.54,163.77,30.72,202.14,23-33.07-33.07-42.5-95.64-42.5-95.64s105.14,192.64,155.81,49.58C899.25,151.1,710.49,39.17,610,15.93Z"/><path class="cls-19" d="M476.06,497.65s0,81.05-38.82,100.69C406.3,614,319.55,612.4,295.81,590.25S262,490,262,490"/><path class="cls-20" d="M254.84,495.92s144.93-29.64,228.36,3"/><line class="cls-21" x1="268.44" y1="506.03" x2="192.11" y2="453.83"/><path class="cls-19" d="M575,497.65s0,81.37,39,101.07c31.06,15.7,118.13,14.11,142-8.13S790,490,790,490"/><path class="cls-22" d="M567.88,498.93c90-30,229.24-3,229.24-3"/><line class="cls-21" x1="783.43" y1="506.03" x2="859.84" y2="453.83"/><path class="cls-23" d="M483.2,512.68s26.08-13.29,44.07-13.29c21.75,0,40.61,10.95,40.61,10.95"/></g></g></svg>